<mxfile host="app.diagrams.net" agent="Mozilla/5.0 (Macintosh; Intel Mac OS X 10_15_7) AppleWebKit/605.1.15 (KHTML, like Gecko) Version/17.6 Safari/605.1.15" version="25.0.1">
  <diagram name="Page-1" id="gcOh2L13ghurHqlArtQZ">
    <mxGraphModel dx="989" dy="570" grid="1" gridSize="10" guides="1" tooltips="1" connect="1" arrows="1" fold="1" page="1" pageScale="1" pageWidth="827" pageHeight="1169" background="#ffffff" math="0" shadow="0">
      <root>
        <mxCell id="0" />
        <mxCell id="1" parent="0" />
        <mxCell id="uvgIFms-rv46Gu-G6dfy-30" style="edgeStyle=orthogonalEdgeStyle;rounded=0;orthogonalLoop=1;jettySize=auto;html=1;exitX=0.5;exitY=1;exitDx=0;exitDy=0;entryX=0.5;entryY=0;entryDx=0;entryDy=0;" edge="1" parent="1" source="VRNMHvbQ2h5_KSJw3uvR-1" target="uvgIFms-rv46Gu-G6dfy-21">
          <mxGeometry relative="1" as="geometry" />
        </mxCell>
        <mxCell id="VRNMHvbQ2h5_KSJw3uvR-1" value="" style="ellipse;whiteSpace=wrap;html=1;aspect=fixed;" parent="1" vertex="1">
          <mxGeometry x="280" y="200" width="40" height="40" as="geometry" />
        </mxCell>
        <mxCell id="VRNMHvbQ2h5_KSJw3uvR-5" value="" style="ellipse;whiteSpace=wrap;html=1;aspect=fixed;strokeWidth=3;" parent="1" vertex="1">
          <mxGeometry x="561" y="370" width="40" height="40" as="geometry" />
        </mxCell>
        <mxCell id="uvgIFms-rv46Gu-G6dfy-31" style="edgeStyle=orthogonalEdgeStyle;rounded=0;orthogonalLoop=1;jettySize=auto;html=1;exitX=0.5;exitY=1;exitDx=0;exitDy=0;entryX=0.5;entryY=0;entryDx=0;entryDy=0;" edge="1" parent="1" source="uvgIFms-rv46Gu-G6dfy-21" target="uvgIFms-rv46Gu-G6dfy-23">
          <mxGeometry relative="1" as="geometry" />
        </mxCell>
        <mxCell id="uvgIFms-rv46Gu-G6dfy-21" value="Receive a list of integers" style="rounded=1;whiteSpace=wrap;html=1;" vertex="1" parent="1">
          <mxGeometry x="240" y="280" width="120" height="40" as="geometry" />
        </mxCell>
        <mxCell id="uvgIFms-rv46Gu-G6dfy-32" style="edgeStyle=orthogonalEdgeStyle;rounded=0;orthogonalLoop=1;jettySize=auto;html=1;exitX=1;exitY=0.5;exitDx=0;exitDy=0;entryX=0;entryY=0.5;entryDx=0;entryDy=0;" edge="1" parent="1" source="uvgIFms-rv46Gu-G6dfy-23" target="uvgIFms-rv46Gu-G6dfy-25">
          <mxGeometry relative="1" as="geometry" />
        </mxCell>
        <mxCell id="uvgIFms-rv46Gu-G6dfy-35" value="No" style="edgeLabel;html=1;align=center;verticalAlign=middle;resizable=0;points=[];" vertex="1" connectable="0" parent="uvgIFms-rv46Gu-G6dfy-32">
          <mxGeometry x="0.2169" relative="1" as="geometry">
            <mxPoint x="-10" as="offset" />
          </mxGeometry>
        </mxCell>
        <mxCell id="uvgIFms-rv46Gu-G6dfy-37" style="edgeStyle=orthogonalEdgeStyle;rounded=0;orthogonalLoop=1;jettySize=auto;html=1;exitX=0.5;exitY=1;exitDx=0;exitDy=0;entryX=0.5;entryY=0;entryDx=0;entryDy=0;" edge="1" parent="1" source="uvgIFms-rv46Gu-G6dfy-23" target="uvgIFms-rv46Gu-G6dfy-36">
          <mxGeometry relative="1" as="geometry" />
        </mxCell>
        <mxCell id="uvgIFms-rv46Gu-G6dfy-45" value="Yes" style="edgeLabel;html=1;align=center;verticalAlign=middle;resizable=0;points=[];" vertex="1" connectable="0" parent="uvgIFms-rv46Gu-G6dfy-37">
          <mxGeometry x="-0.1494" y="3" relative="1" as="geometry">
            <mxPoint as="offset" />
          </mxGeometry>
        </mxCell>
        <mxCell id="uvgIFms-rv46Gu-G6dfy-23" value="Is sorted?" style="rhombus;whiteSpace=wrap;html=1;fontSize=12;" vertex="1" parent="1">
          <mxGeometry x="267.85" y="360" width="64.29" height="60" as="geometry" />
        </mxCell>
        <mxCell id="uvgIFms-rv46Gu-G6dfy-27" style="edgeStyle=orthogonalEdgeStyle;rounded=0;orthogonalLoop=1;jettySize=auto;html=1;exitX=1;exitY=0.5;exitDx=0;exitDy=0;entryX=0;entryY=0.5;entryDx=0;entryDy=0;" edge="1" parent="1" source="uvgIFms-rv46Gu-G6dfy-25" target="VRNMHvbQ2h5_KSJw3uvR-5">
          <mxGeometry relative="1" as="geometry" />
        </mxCell>
        <mxCell id="uvgIFms-rv46Gu-G6dfy-25" value="Return False" style="rounded=1;whiteSpace=wrap;html=1;" vertex="1" parent="1">
          <mxGeometry x="410" y="370" width="120" height="40" as="geometry" />
        </mxCell>
        <mxCell id="uvgIFms-rv46Gu-G6dfy-29" style="edgeStyle=orthogonalEdgeStyle;rounded=0;orthogonalLoop=1;jettySize=auto;html=1;exitX=0.5;exitY=1;exitDx=0;exitDy=0;entryX=0.5;entryY=0;entryDx=0;entryDy=0;" edge="1" parent="1" source="uvgIFms-rv46Gu-G6dfy-26" target="uvgIFms-rv46Gu-G6dfy-28">
          <mxGeometry relative="1" as="geometry" />
        </mxCell>
        <mxCell id="uvgIFms-rv46Gu-G6dfy-26" value="Return True" style="rounded=1;whiteSpace=wrap;html=1;" vertex="1" parent="1">
          <mxGeometry x="240" y="560.5" width="120" height="40" as="geometry" />
        </mxCell>
        <mxCell id="uvgIFms-rv46Gu-G6dfy-28" value="" style="ellipse;whiteSpace=wrap;html=1;aspect=fixed;strokeWidth=3;" vertex="1" parent="1">
          <mxGeometry x="280" y="640" width="40" height="40" as="geometry" />
        </mxCell>
        <mxCell id="uvgIFms-rv46Gu-G6dfy-43" style="edgeStyle=orthogonalEdgeStyle;rounded=0;orthogonalLoop=1;jettySize=auto;html=1;exitX=0.5;exitY=1;exitDx=0;exitDy=0;entryX=0.5;entryY=0;entryDx=0;entryDy=0;" edge="1" parent="1" source="uvgIFms-rv46Gu-G6dfy-36" target="uvgIFms-rv46Gu-G6dfy-26">
          <mxGeometry relative="1" as="geometry" />
        </mxCell>
        <mxCell id="uvgIFms-rv46Gu-G6dfy-44" value="Yes" style="edgeLabel;html=1;align=center;verticalAlign=middle;resizable=0;points=[];" vertex="1" connectable="0" parent="uvgIFms-rv46Gu-G6dfy-43">
          <mxGeometry x="-0.4121" y="-1" relative="1" as="geometry">
            <mxPoint x="1" y="2" as="offset" />
          </mxGeometry>
        </mxCell>
        <mxCell id="uvgIFms-rv46Gu-G6dfy-36" value="numbers&lt;div&gt;appears more than twice?&lt;/div&gt;" style="rhombus;whiteSpace=wrap;html=1;fontSize=10;" vertex="1" parent="1">
          <mxGeometry x="258.93" y="450" width="82.14" height="80" as="geometry" />
        </mxCell>
        <mxCell id="uvgIFms-rv46Gu-G6dfy-38" value="" style="ellipse;whiteSpace=wrap;html=1;aspect=fixed;strokeWidth=3;" vertex="1" parent="1">
          <mxGeometry x="561" y="470" width="40" height="40" as="geometry" />
        </mxCell>
        <mxCell id="uvgIFms-rv46Gu-G6dfy-39" style="edgeStyle=orthogonalEdgeStyle;rounded=0;orthogonalLoop=1;jettySize=auto;html=1;entryX=0;entryY=0.5;entryDx=0;entryDy=0;" edge="1" parent="1" target="uvgIFms-rv46Gu-G6dfy-42">
          <mxGeometry relative="1" as="geometry">
            <mxPoint x="340" y="490" as="sourcePoint" />
          </mxGeometry>
        </mxCell>
        <mxCell id="uvgIFms-rv46Gu-G6dfy-40" value="No" style="edgeLabel;html=1;align=center;verticalAlign=middle;resizable=0;points=[];" vertex="1" connectable="0" parent="uvgIFms-rv46Gu-G6dfy-39">
          <mxGeometry x="0.2169" relative="1" as="geometry">
            <mxPoint x="-10" as="offset" />
          </mxGeometry>
        </mxCell>
        <mxCell id="uvgIFms-rv46Gu-G6dfy-41" style="edgeStyle=orthogonalEdgeStyle;rounded=0;orthogonalLoop=1;jettySize=auto;html=1;exitX=1;exitY=0.5;exitDx=0;exitDy=0;entryX=0;entryY=0.5;entryDx=0;entryDy=0;" edge="1" parent="1" source="uvgIFms-rv46Gu-G6dfy-42" target="uvgIFms-rv46Gu-G6dfy-38">
          <mxGeometry relative="1" as="geometry" />
        </mxCell>
        <mxCell id="uvgIFms-rv46Gu-G6dfy-42" value="Return False" style="rounded=1;whiteSpace=wrap;html=1;" vertex="1" parent="1">
          <mxGeometry x="410" y="470" width="120" height="40" as="geometry" />
        </mxCell>
      </root>
    </mxGraphModel>
  </diagram>
</mxfile>